<svg width="15" height="18" viewBox="0 0 15 18" fill="none" xmlns="http://www.w3.org/2000/svg">
<path d="M1.278 0.9072C1.43638 0.631702 1.66523 0.402695 1.94136 0.24338C2.2175 0.0840645 2.53111 0.000102337 2.85041 0H12.1508C12.4702 0.000102337 12.7838 0.0840645 13.0599 0.24338C13.336 0.402695 13.5649 0.631702 13.7233 0.9072L14.7586 2.7072C15.3455 3.7278 14.8029 4.9599 13.7713 5.3055C13.7758 5.3793 13.7749 5.4531 13.7695 5.5278L12.9932 16.3278C12.9607 16.7819 12.7562 17.2069 12.4209 17.5172C12.0856 17.8275 11.6444 18 11.1862 18H3.81415C3.35596 18 2.91478 17.8275 2.57949 17.5172C2.24419 17.2069 2.03968 16.7819 2.00714 16.3278L1.2309 5.5278C1.22544 5.45382 1.22453 5.37959 1.22818 5.3055C0.197418 4.9599 -0.345137 3.7278 0.240895 2.7072L1.27709 0.9072H1.278ZM3.03881 5.4L3.23265 8.1H11.7686L11.9624 5.4H3.03881ZM3.62122 13.5L3.81506 16.2H11.1862L11.38 13.5H3.62122ZM13.1861 3.6L12.1508 1.8H2.85041L1.81512 3.6H13.1861Z" fill="#650101" fill-opacity="0.58"/>
</svg>
