<svg width="247" height="240" viewBox="0 0 247 240" fill="none" xmlns="http://www.w3.org/2000/svg">
<g id="Final Logo">
<g id="S" filter="url(#filter0_d_9:179)">
<path id="Vector 1" d="M152 91.8022V148.156H93.2565V91.8022" stroke="#DCDCDC" stroke-width="4" stroke-linecap="round"/>
<path id="Vector 2" d="M34 147.956L34 91H93.5131L93.5131 147.956" stroke="#DCDCDC" stroke-width="4" stroke-linecap="round"/>
</g>
<g id="Hell" filter="url(#filter1_d_9:179)">
<path d="M53.3223 116.246C53.3105 116.305 53.2871 116.551 53.252 116.984C53.2285 117.406 53.1934 117.969 53.1465 118.672C53.0996 119.363 53.041 120.172 52.9707 121.098C52.9121 122.023 52.8477 123.014 52.7773 124.068C52.7188 125.111 52.6543 126.195 52.584 127.32C52.5137 128.445 52.4434 129.559 52.373 130.66L53.4453 131.434C54.6406 131.152 55.8594 130.848 57.1016 130.52C58.3438 130.191 59.5039 129.875 60.582 129.57L61.4961 116.387C61.5078 116.211 61.5195 116.064 61.5312 115.947C61.5547 115.83 61.584 115.73 61.6191 115.648C61.666 115.566 61.7246 115.502 61.7949 115.455C61.877 115.408 61.9824 115.373 62.1113 115.35C62.2402 115.326 62.334 115.285 62.3926 115.227C62.4629 115.156 62.5156 115.086 62.5508 115.016C62.5977 114.945 62.6445 114.881 62.6914 114.822C62.75 114.752 62.832 114.699 62.9375 114.664C63.043 114.629 63.1543 114.576 63.2715 114.506C63.4004 114.436 63.5234 114.365 63.6406 114.295C63.7578 114.213 63.8691 114.143 63.9746 114.084C64.0801 114.025 64.1797 113.996 64.2734 113.996C64.4023 113.996 64.5137 114.049 64.6074 114.154C64.7129 114.26 64.7656 114.4 64.7656 114.576C64.7656 114.658 64.748 114.91 64.7129 115.332C64.6895 115.742 64.6543 116.287 64.6074 116.967C64.5605 117.635 64.502 118.414 64.4316 119.305C64.373 120.195 64.3027 121.15 64.2207 122.17C64.1504 123.178 64.0684 124.232 63.9746 125.334C63.8926 126.436 63.8105 127.537 63.7285 128.639C64.0215 128.545 64.2617 128.463 64.4492 128.393C64.6484 128.322 64.7891 128.27 64.8711 128.234C65.0586 128.152 65.1816 128.111 65.2402 128.111C65.334 128.111 65.4043 128.141 65.4512 128.199C65.498 128.258 65.5215 128.334 65.5215 128.428C65.5215 128.521 65.498 128.627 65.4512 128.744C65.4043 128.861 65.3223 128.955 65.2051 129.025C65.1348 129.084 64.9648 129.166 64.6953 129.271C64.4375 129.365 64.0918 129.494 63.6582 129.658C63.5527 131.018 63.4531 132.318 63.3594 133.561C63.2656 134.803 63.1777 135.91 63.0957 136.883C63.0254 137.844 62.9668 138.623 62.9199 139.221C62.873 139.807 62.8438 140.129 62.832 140.188C62.7969 140.492 62.7031 140.703 62.5508 140.82C62.4102 140.938 62.2109 140.996 61.9531 140.996C61.8008 140.996 61.6484 140.943 61.4961 140.838C61.3438 140.744 61.1621 140.598 60.9512 140.398C60.752 140.199 60.5176 139.959 60.248 139.678C59.9785 139.385 59.6504 139.051 59.2637 138.676C58.5723 138.008 57.9512 137.428 57.4004 136.936C56.8613 136.432 56.3457 135.969 55.8535 135.547C55.373 135.125 54.8984 134.727 54.4297 134.352C53.9727 133.977 53.4746 133.578 52.9355 133.156C52.8066 133.203 52.6777 133.244 52.5488 133.279C52.4316 133.314 52.3086 133.35 52.1797 133.385C52.1211 134.322 52.0625 135.207 52.0039 136.039C51.9453 136.859 51.8926 137.598 51.8457 138.254C51.8105 138.898 51.7754 139.443 51.7402 139.889C51.7051 140.322 51.6816 140.615 51.6699 140.768C51.623 141.213 51.5293 141.723 51.3887 142.297C51.2598 142.883 51.0254 143.48 50.6855 144.09C50.3574 144.711 49.8945 145.32 49.2969 145.918C48.6992 146.516 47.9082 147.061 46.9238 147.553C46.8652 147.576 46.8066 147.6 46.748 147.623C46.6895 147.646 46.6191 147.658 46.5371 147.658C46.4316 147.658 46.3496 147.623 46.291 147.553C46.2441 147.482 46.2207 147.4 46.2207 147.307C46.2207 147.213 46.2441 147.119 46.291 147.025C46.3379 146.932 46.4141 146.85 46.5195 146.779C46.6484 146.686 46.8125 146.557 47.0117 146.393C47.2109 146.229 47.4102 146 47.6094 145.707C47.8086 145.414 47.9844 145.045 48.1367 144.6C48.2891 144.166 48.3828 143.633 48.418 143C48.4531 142.695 48.4941 142.18 48.541 141.453C48.5879 140.832 48.6465 139.941 48.7168 138.781C48.7871 137.609 48.8809 136.062 48.998 134.141C48.6816 134.188 48.3711 134.223 48.0664 134.246C47.7734 134.258 47.4863 134.264 47.2051 134.264C46.2559 134.264 45.418 134.152 44.6914 133.93C43.9648 133.707 43.3555 133.408 42.8633 133.033C42.3711 132.658 41.9961 132.23 41.7383 131.75C41.4922 131.258 41.3691 130.742 41.3691 130.203C41.3691 129.676 41.4512 129.225 41.6152 128.85C41.7793 128.463 42.002 128.146 42.2832 127.9C42.5762 127.654 42.916 127.473 43.3027 127.355C43.6895 127.238 44.0996 127.18 44.5332 127.18C45.2363 127.18 45.9922 127.309 46.8008 127.566C47.6211 127.824 48.459 128.182 49.3145 128.639L49.9297 117.178C49.9531 116.803 50.082 116.533 50.3164 116.369C50.5625 116.205 50.873 116.123 51.248 116.123C51.3418 116.123 51.3945 116.129 51.4062 116.141C51.418 116.152 51.4414 116.158 51.4766 116.158C51.5586 116.158 51.6348 116.135 51.7051 116.088C51.7871 116.029 51.8633 115.965 51.9336 115.895C52.0156 115.824 52.0859 115.766 52.1445 115.719C52.2148 115.66 52.2852 115.631 52.3555 115.631C52.4727 115.631 52.5957 115.584 52.7246 115.49C52.8535 115.396 52.9824 115.35 53.1113 115.35C53.2871 115.35 53.375 115.461 53.375 115.684C53.375 115.812 53.3574 116 53.3223 116.246ZM54.957 132.541C55.8359 133.209 56.6914 133.889 57.5234 134.58C58.3672 135.271 59.2168 136.045 60.0723 136.9L60.4941 130.748C59.6855 131.018 58.8125 131.305 57.875 131.609C56.9492 131.902 55.9766 132.213 54.957 132.541ZM48.4355 132.242C48.541 132.242 48.6465 132.242 48.752 132.242C48.8691 132.242 48.9863 132.236 49.1035 132.225L49.209 130.432C48.541 130.033 47.9492 129.746 47.4336 129.57C46.918 129.395 46.4785 129.307 46.1152 129.307C45.7051 129.307 45.3887 129.4 45.166 129.588C44.9434 129.775 44.832 130.033 44.832 130.361C44.832 130.584 44.8965 130.807 45.0254 131.029C45.166 131.252 45.377 131.457 45.6582 131.645C45.9512 131.82 46.3262 131.967 46.7832 132.084C47.2402 132.189 47.791 132.242 48.4355 132.242ZM75.0488 133.666C75.1191 133.666 75.1777 133.689 75.2246 133.736C75.2832 133.783 75.3125 133.854 75.3125 133.947C75.3125 134.041 75.2949 134.129 75.2598 134.211C75.084 134.703 74.8906 135.166 74.6797 135.6C74.4805 136.033 74.293 136.42 74.1172 136.76C73.9062 137.146 73.7012 137.51 73.502 137.85C73.2559 138.236 72.9805 138.605 72.6758 138.957C72.3828 139.297 72.0605 139.602 71.709 139.871C71.3574 140.129 70.9766 140.334 70.5664 140.486C70.1562 140.639 69.7227 140.715 69.2656 140.715C68.9258 140.715 68.5508 140.656 68.1406 140.539C67.7422 140.422 67.3672 140.205 67.0156 139.889C66.6758 139.572 66.3945 139.139 66.1719 138.588C65.9375 138.037 65.8203 137.328 65.8203 136.461C65.8203 136.062 65.8613 135.658 65.9434 135.248C66.0137 134.838 66.1191 134.445 66.2598 134.07C66.3887 133.695 66.5352 133.344 66.6992 133.016C66.875 132.688 67.0508 132.4 67.2266 132.154C67.5312 131.732 67.8535 131.34 68.1934 130.977C68.5332 130.602 68.873 130.279 69.2129 130.01C69.5645 129.729 69.9043 129.512 70.2324 129.359C70.5605 129.207 70.8652 129.131 71.1465 129.131C71.5918 129.131 71.9785 129.301 72.3066 129.641C72.6465 129.98 72.8164 130.467 72.8164 131.1C72.8164 131.65 72.6758 132.225 72.3945 132.822C72.1133 133.408 71.7617 133.982 71.3398 134.545C70.918 135.107 70.4668 135.629 69.9863 136.109C69.5059 136.59 69.0664 136.988 68.668 137.305C68.8789 137.832 69.1484 138.219 69.4766 138.465C69.8047 138.711 70.1387 138.834 70.4785 138.834C71.0059 138.834 71.4746 138.664 71.8848 138.324C72.3066 137.984 72.6816 137.568 73.0098 137.076C73.3496 136.584 73.6426 136.068 73.8887 135.529C74.1465 134.99 74.375 134.516 74.5742 134.105C74.6445 133.965 74.7148 133.859 74.7852 133.789C74.8555 133.707 74.9434 133.666 75.0488 133.666ZM68.2109 134.51C68.2109 135.201 68.2637 135.811 68.3691 136.338C68.6035 136.104 68.8379 135.84 69.0723 135.547C69.3184 135.242 69.5352 134.932 69.7227 134.615C69.9219 134.299 70.0801 133.977 70.1973 133.648C70.3262 133.32 70.3906 133.004 70.3906 132.699C70.3906 132.23 70.291 131.867 70.0918 131.609C69.8926 131.352 69.6934 131.223 69.4941 131.223C69.377 131.223 69.2422 131.299 69.0898 131.451C68.9492 131.592 68.8086 131.803 68.668 132.084C68.5391 132.365 68.4277 132.711 68.334 133.121C68.252 133.52 68.2109 133.982 68.2109 134.51ZM81.2188 133.666C81.2891 133.666 81.3477 133.695 81.3945 133.754C81.4531 133.801 81.4824 133.871 81.4824 133.965C81.4824 134.047 81.4648 134.129 81.4297 134.211C81.1953 134.891 80.9668 135.518 80.7441 136.092C80.5332 136.654 80.3223 137.176 80.1113 137.656C79.9121 138.113 79.7188 138.506 79.5312 138.834C79.3555 139.162 79.1797 139.438 79.0039 139.66C78.8398 139.883 78.6699 140.064 78.4941 140.205C78.3301 140.334 78.1602 140.428 77.9844 140.486C77.8086 140.545 77.6035 140.574 77.3691 140.574C77.1113 140.574 76.8301 140.516 76.5254 140.398C76.2207 140.293 75.9336 140.082 75.6641 139.766C75.4062 139.449 75.1895 139.01 75.0137 138.447C74.8379 137.873 74.75 137.129 74.75 136.215C74.75 135.969 74.7617 135.553 74.7852 134.967C74.8203 134.381 74.8613 133.678 74.9082 132.857C74.9668 132.025 75.0312 131.088 75.1016 130.045C75.1836 129.002 75.2715 127.9 75.3652 126.74C75.4238 126.025 75.4941 125.246 75.5762 124.402C75.6699 123.547 75.7637 122.715 75.8574 121.906C75.9512 121.098 76.0449 120.354 76.1387 119.674C76.2324 118.994 76.3145 118.461 76.3848 118.074C76.4668 117.664 76.625 117.342 76.8594 117.107C77.0938 116.873 77.3574 116.621 77.6504 116.352C77.7559 116.246 77.8672 116.135 77.9844 116.018C78.1016 115.889 78.2188 115.771 78.3359 115.666C78.4531 115.561 78.5645 115.473 78.6699 115.402C78.7871 115.32 78.8984 115.279 79.0039 115.279C79.168 115.279 79.25 115.361 79.25 115.525C79.25 115.654 79.2207 115.889 79.1621 116.229C79.1035 116.568 79.0215 117.113 78.916 117.863C78.8105 118.613 78.6816 119.627 78.5293 120.904C78.3887 122.17 78.2363 123.799 78.0723 125.791C78.0371 126.189 77.9961 126.664 77.9492 127.215C77.9023 127.766 77.8555 128.352 77.8086 128.973C77.7617 129.582 77.7148 130.209 77.668 130.854C77.6328 131.486 77.5977 132.09 77.5625 132.664C77.5273 133.227 77.498 133.742 77.4746 134.211C77.4512 134.68 77.4395 135.055 77.4395 135.336C77.4395 136.145 77.5215 136.783 77.6855 137.252C77.8613 137.709 78.1484 137.938 78.5469 137.938C78.7695 137.938 78.9688 137.838 79.1445 137.639C79.3203 137.439 79.4902 137.17 79.6543 136.83C79.8184 136.479 79.9883 136.074 80.1641 135.617C80.3398 135.148 80.5332 134.645 80.7441 134.105C80.8027 133.965 80.873 133.859 80.9551 133.789C81.0371 133.707 81.125 133.666 81.2188 133.666ZM87.3711 133.666C87.4414 133.666 87.5 133.695 87.5469 133.754C87.6055 133.801 87.6348 133.871 87.6348 133.965C87.6348 134.047 87.6172 134.129 87.582 134.211C87.3477 134.891 87.1191 135.518 86.8965 136.092C86.6855 136.654 86.4746 137.176 86.2637 137.656C86.0645 138.113 85.8711 138.506 85.6836 138.834C85.5078 139.162 85.332 139.438 85.1562 139.66C84.9922 139.883 84.8223 140.064 84.6465 140.205C84.4824 140.334 84.3125 140.428 84.1367 140.486C83.9609 140.545 83.7559 140.574 83.5215 140.574C83.2637 140.574 82.9824 140.516 82.6777 140.398C82.373 140.293 82.0859 140.082 81.8164 139.766C81.5586 139.449 81.3418 139.01 81.166 138.447C80.9902 137.873 80.9023 137.129 80.9023 136.215C80.9023 135.969 80.9141 135.553 80.9375 134.967C80.9727 134.381 81.0137 133.678 81.0605 132.857C81.1191 132.025 81.1836 131.088 81.2539 130.045C81.3359 129.002 81.4238 127.9 81.5176 126.74C81.5762 126.025 81.6465 125.246 81.7285 124.402C81.8223 123.547 81.916 122.715 82.0098 121.906C82.1035 121.098 82.1973 120.354 82.291 119.674C82.3848 118.994 82.4668 118.461 82.5371 118.074C82.6191 117.664 82.7773 117.342 83.0117 117.107C83.2461 116.873 83.5098 116.621 83.8027 116.352C83.9082 116.246 84.0195 116.135 84.1367 116.018C84.2539 115.889 84.3711 115.771 84.4883 115.666C84.6055 115.561 84.7168 115.473 84.8223 115.402C84.9395 115.32 85.0508 115.279 85.1562 115.279C85.3203 115.279 85.4023 115.361 85.4023 115.525C85.4023 115.654 85.373 115.889 85.3145 116.229C85.2559 116.568 85.1738 117.113 85.0684 117.863C84.9629 118.613 84.834 119.627 84.6816 120.904C84.541 122.17 84.3887 123.799 84.2246 125.791C84.1895 126.189 84.1484 126.664 84.1016 127.215C84.0547 127.766 84.0078 128.352 83.9609 128.973C83.9141 129.582 83.8672 130.209 83.8203 130.854C83.7852 131.486 83.75 132.09 83.7148 132.664C83.6797 133.227 83.6504 133.742 83.627 134.211C83.6035 134.68 83.5918 135.055 83.5918 135.336C83.5918 136.145 83.6738 136.783 83.8379 137.252C84.0137 137.709 84.3008 137.938 84.6992 137.938C84.9219 137.938 85.1211 137.838 85.2969 137.639C85.4727 137.439 85.6426 137.17 85.8066 136.83C85.9707 136.479 86.1406 136.074 86.3164 135.617C86.4922 135.148 86.6855 134.645 86.8965 134.105C86.9551 133.965 87.0254 133.859 87.1074 133.789C87.1895 133.707 87.2773 133.666 87.3711 133.666Z" fill="#00A3FF"/>
</g>
<g id="DEVELOPER" filter="url(#filter2_d_9:179)">
<path d="M47.3203 165.109C47.3203 166.098 47.2344 166.996 47.0625 167.806C46.8906 168.615 46.6579 169.338 46.3643 169.976C46.0706 170.606 45.7305 171.154 45.3438 171.619C44.9642 172.085 44.5632 172.468 44.1406 172.769C43.7253 173.076 43.3027 173.302 42.873 173.445C42.4434 173.596 42.0352 173.671 41.6484 173.671C41.3548 173.671 41.0719 173.617 40.7998 173.51C40.5348 173.41 40.3021 173.263 40.1016 173.069C39.901 172.876 39.7399 172.64 39.6182 172.36C39.5036 172.088 39.4463 171.777 39.4463 171.426C39.4463 171.283 39.4606 171.182 39.4893 171.125C39.5251 171.068 39.5716 171.039 39.6289 171.039C39.7077 171.039 39.7721 171.111 39.8223 171.254C39.9655 171.676 40.1768 171.999 40.4561 172.221C40.7425 172.443 41.0934 172.554 41.5088 172.554C42.0531 172.554 42.5436 172.375 42.9805 172.017C43.4245 171.651 43.8005 171.125 44.1084 170.438C44.4235 169.75 44.667 168.905 44.8389 167.902C45.0107 166.9 45.0967 165.754 45.0967 164.465C45.0967 163.627 45.0036 162.857 44.8174 162.155C44.6383 161.446 44.3555 160.838 43.9688 160.329C43.5892 159.813 43.1022 159.412 42.5078 159.126C41.9206 158.84 41.2152 158.696 40.3916 158.696C39.8831 158.696 39.3675 158.761 38.8447 158.89C38.3291 159.019 37.86 159.215 37.4375 159.48C37.0221 159.745 36.682 160.086 36.417 160.501C36.152 160.916 36.0195 161.407 36.0195 161.973C36.0195 162.288 36.0625 162.592 36.1484 162.886C36.2344 163.179 36.3346 163.448 36.4492 163.691C36.5638 163.935 36.6748 164.143 36.7822 164.314C36.8968 164.486 36.9792 164.604 37.0293 164.669C37.1009 164.762 37.1367 164.852 37.1367 164.938C37.1367 164.995 37.1117 165.045 37.0615 165.088C37.0186 165.131 36.9362 165.152 36.8145 165.152C36.7786 165.152 36.7428 165.152 36.707 165.152C36.6712 165.152 36.6318 165.145 36.5889 165.131C36.4456 165.109 36.2451 165.034 35.9873 164.905C35.7367 164.776 35.486 164.59 35.2354 164.347C34.9919 164.103 34.777 163.802 34.5908 163.444C34.4118 163.079 34.3223 162.649 34.3223 162.155C34.3223 161.826 34.3796 161.468 34.4941 161.081C34.6159 160.687 34.7913 160.297 35.0205 159.91C35.2568 159.523 35.5505 159.151 35.9014 158.793C36.2523 158.435 36.6569 158.12 37.1152 157.848C37.5807 157.568 38.0999 157.346 38.6729 157.182C39.2529 157.017 39.8867 156.935 40.5742 156.935C41.5768 156.935 42.4362 157.081 43.1523 157.375C43.8757 157.661 44.488 158.041 44.9893 158.514C45.4906 158.979 45.8916 159.509 46.1924 160.104C46.5003 160.698 46.7367 161.299 46.9014 161.908C47.0732 162.51 47.1842 163.093 47.2344 163.659C47.2917 164.218 47.3203 164.701 47.3203 165.109ZM39.21 160.447C39.2816 160.29 39.3818 160.164 39.5107 160.071C39.6396 159.971 39.7865 159.921 39.9512 159.921C40.0085 159.921 40.0837 159.939 40.1768 159.975C40.2699 160.01 40.3164 160.068 40.3164 160.146C40.3164 160.204 40.3092 160.257 40.2949 160.308C40.2878 160.351 40.277 160.411 40.2627 160.49C40.1338 161.099 40.0192 161.718 39.9189 162.349C39.8258 162.979 39.7435 163.598 39.6719 164.207C39.6003 164.816 39.5394 165.403 39.4893 165.969C39.4463 166.527 39.4105 167.047 39.3818 167.526C39.3604 168.006 39.3424 168.432 39.3281 168.805C39.321 169.17 39.3174 169.464 39.3174 169.686C39.3174 170.402 39.3138 170.971 39.3066 171.394C39.2995 171.809 39.2959 172.128 39.2959 172.35C39.2959 172.378 39.2959 172.418 39.2959 172.468C39.2959 172.518 39.2887 172.564 39.2744 172.607C39.2601 172.658 39.235 172.701 39.1992 172.736C39.1706 172.772 39.1276 172.79 39.0703 172.79C38.9772 172.79 38.8913 172.772 38.8125 172.736C38.7337 172.701 38.6585 172.658 38.5869 172.607C38.5153 172.564 38.4437 172.525 38.3721 172.489C38.3076 172.453 38.2432 172.436 38.1787 172.436C38.0999 172.436 38.0355 172.461 37.9854 172.511C37.9352 172.561 37.8743 172.586 37.8027 172.586C37.7168 172.586 37.6488 172.564 37.5986 172.521C37.5485 172.479 37.5127 172.425 37.4912 172.36C37.4697 172.296 37.4554 172.228 37.4482 172.156C37.4482 172.085 37.4482 172.02 37.4482 171.963C37.4482 171.691 37.4554 171.293 37.4697 170.771C37.4912 170.241 37.5199 169.618 37.5557 168.901C37.5771 168.486 37.6022 168.042 37.6309 167.569C37.6667 167.09 37.7061 166.613 37.749 166.141C37.792 165.668 37.835 165.21 37.8779 164.766C37.9281 164.314 37.971 163.906 38.0068 163.541C38.0498 163.169 38.0856 162.854 38.1143 162.596C38.1501 162.338 38.1751 162.159 38.1895 162.059C38.2396 161.743 38.2897 161.475 38.3398 161.253C38.3971 161.031 38.458 160.881 38.5225 160.802C38.5726 160.737 38.6335 160.68 38.7051 160.63C38.7624 160.587 38.834 160.548 38.9199 160.512C39.0059 160.469 39.1025 160.447 39.21 160.447ZM54.8398 157.021C55.5488 157.021 56.1576 157.11 56.666 157.289C57.1816 157.461 57.6113 157.665 57.9551 157.901C58.2988 158.131 58.5638 158.363 58.75 158.6C58.9362 158.836 59.0544 159.019 59.1045 159.147C59.1331 159.212 59.1475 159.269 59.1475 159.319C59.1546 159.362 59.1582 159.402 59.1582 159.438C59.1582 159.523 59.1367 159.584 59.0938 159.62C59.0579 159.656 59.0114 159.72 58.9541 159.813C58.9111 159.885 58.861 159.935 58.8037 159.964C58.7536 159.993 58.6963 160.018 58.6318 160.039C58.5745 160.061 58.5173 160.089 58.46 160.125C58.4098 160.154 58.3669 160.204 58.3311 160.275C58.2165 160.49 58.0553 160.598 57.8477 160.598C57.7259 160.598 57.6077 160.562 57.4932 160.49C57.3786 160.411 57.2497 160.315 57.1064 160.2C56.9632 160.086 56.7949 159.96 56.6016 159.824C56.4154 159.688 56.1826 159.563 55.9033 159.448C55.6312 159.334 55.3053 159.241 54.9258 159.169C54.5462 159.09 54.0951 159.051 53.5723 159.051C52.9993 159.051 52.4945 159.14 52.0576 159.319C51.6279 159.491 51.2269 159.749 50.8545 160.093C50.5322 160.394 50.2887 160.712 50.124 161.049C49.9665 161.385 49.8877 161.711 49.8877 162.026C49.8877 162.392 50.0059 162.725 50.2422 163.025C50.4141 163.24 50.6683 163.451 51.0049 163.659C51.3486 163.867 51.7139 164.064 52.1006 164.25C52.4945 164.436 52.8776 164.608 53.25 164.766C53.6296 164.916 53.9375 165.045 54.1738 165.152C54.3815 165.245 54.5176 165.339 54.582 165.432C54.6536 165.525 54.6895 165.621 54.6895 165.722C54.6895 165.829 54.668 165.944 54.625 166.065C54.5892 166.18 54.5713 166.298 54.5713 166.42C54.5713 166.477 54.5785 166.531 54.5928 166.581C54.6071 166.631 54.6143 166.681 54.6143 166.731C54.6143 166.846 54.5785 166.946 54.5068 167.032C54.4424 167.111 54.3529 167.183 54.2383 167.247C54.1309 167.312 54.0055 167.369 53.8623 167.419C53.7191 167.469 53.5758 167.516 53.4326 167.559C53.2249 167.623 52.96 167.716 52.6377 167.838C52.3154 167.96 52.0039 168.124 51.7031 168.332C51.4023 168.533 51.1445 168.783 50.9297 169.084C50.7148 169.385 50.6074 169.75 50.6074 170.18C50.6074 170.466 50.6683 170.735 50.79 170.985C50.9118 171.236 51.0837 171.458 51.3057 171.651C51.5348 171.838 51.807 171.984 52.1221 172.092C52.4372 172.199 52.7845 172.253 53.1641 172.253C54.0306 172.253 54.8148 172.063 55.5166 171.684C56.2184 171.304 56.7949 170.785 57.2461 170.126C57.3464 169.983 57.4645 169.779 57.6006 169.514C57.7438 169.242 57.8942 168.912 58.0518 168.525C58.0876 168.439 58.1341 168.375 58.1914 168.332C58.2487 168.282 58.306 168.257 58.3633 168.257C58.4062 168.257 58.4421 168.275 58.4707 168.311C58.5065 168.339 58.5244 168.382 58.5244 168.439C58.5244 168.497 58.4922 168.618 58.4277 168.805C58.3633 168.984 58.2738 169.199 58.1592 169.449C58.0446 169.693 57.9049 169.958 57.7402 170.244C57.5827 170.531 57.4108 170.806 57.2246 171.071C56.9668 171.437 56.666 171.78 56.3223 172.103C55.9857 172.418 55.6169 172.693 55.2158 172.93C54.8219 173.166 54.3994 173.349 53.9482 173.478C53.4971 173.614 53.0244 173.682 52.5303 173.682C52.0863 173.682 51.6387 173.617 51.1875 173.488C50.7363 173.367 50.3245 173.18 49.9521 172.93C49.5869 172.679 49.2861 172.36 49.0498 171.974C48.8206 171.587 48.7061 171.132 48.7061 170.609C48.7061 170.087 48.8063 169.639 49.0068 169.267C49.2074 168.887 49.4544 168.568 49.748 168.311C50.0488 168.053 50.3711 167.841 50.7148 167.677C51.0658 167.512 51.388 167.38 51.6816 167.279C51.9824 167.172 52.2331 167.086 52.4336 167.021C52.6341 166.957 52.7344 166.893 52.7344 166.828C52.7344 166.778 52.6807 166.728 52.5732 166.678C52.473 166.62 52.3369 166.56 52.165 166.495C52.0003 166.424 51.8105 166.345 51.5957 166.259C51.3809 166.173 51.1624 166.069 50.9404 165.947C50.5824 165.754 50.2601 165.55 49.9736 165.335C49.6872 165.12 49.4401 164.887 49.2324 164.637C49.0319 164.379 48.8779 164.1 48.7705 163.799C48.6631 163.491 48.6094 163.151 48.6094 162.778C48.6094 162.284 48.6846 161.797 48.835 161.317C48.9925 160.838 49.2109 160.386 49.4902 159.964C49.7695 159.534 50.099 159.14 50.4785 158.782C50.8652 158.424 51.2878 158.116 51.7461 157.858C52.2116 157.593 52.7057 157.389 53.2285 157.246C53.7513 157.096 54.2884 157.021 54.8398 157.021ZM74.498 158.116C74.498 158.138 74.498 158.195 74.498 158.288C74.5052 158.374 74.5088 158.489 74.5088 158.632C74.5088 158.954 74.4909 159.398 74.4551 159.964C74.4264 160.53 74.3477 161.174 74.2188 161.897C74.097 162.614 73.9108 163.383 73.6602 164.207C73.4167 165.023 73.0801 165.847 72.6504 166.678C72.4141 167.143 72.1491 167.641 71.8555 168.171C71.569 168.701 71.2217 169.242 70.8135 169.793C70.4124 170.344 69.9362 170.896 69.3848 171.447C68.8405 171.992 68.1888 172.511 67.4297 173.005C67.0215 173.27 66.6706 173.449 66.377 173.542C66.0833 173.642 65.8255 173.692 65.6035 173.692C65.4388 173.692 65.2992 173.667 65.1846 173.617C65.07 173.574 64.9733 173.517 64.8945 173.445C64.8229 173.374 64.7692 173.295 64.7334 173.209C64.6976 173.13 64.6797 173.055 64.6797 172.983C64.6797 172.683 64.6976 172.178 64.7334 171.469C64.7764 170.753 64.7979 169.872 64.7979 168.826C64.7979 167.58 64.7441 166.159 64.6367 164.562C64.5365 162.957 64.3324 161.235 64.0244 159.395C64.0101 159.33 63.9958 159.287 63.9814 159.266C63.9743 159.237 63.9492 159.223 63.9062 159.223L63.7881 159.233C63.2581 159.326 62.8177 159.463 62.4668 159.642C62.1159 159.821 61.833 160.032 61.6182 160.275C61.4105 160.512 61.2637 160.77 61.1777 161.049C61.0918 161.328 61.0488 161.611 61.0488 161.897C61.0488 162.277 61.099 162.628 61.1992 162.95C61.3066 163.272 61.4355 163.566 61.5859 163.831C61.7435 164.089 61.9046 164.318 62.0693 164.519C62.2412 164.712 62.3916 164.869 62.5205 164.991C62.5993 165.063 62.6387 165.124 62.6387 165.174C62.6387 165.317 62.4704 165.389 62.1338 165.389C62.0622 165.389 61.944 165.378 61.7793 165.356C61.6217 165.335 61.4427 165.288 61.2422 165.217C61.0488 165.138 60.8447 165.031 60.6299 164.895C60.415 164.758 60.2181 164.576 60.0391 164.347C59.8672 164.118 59.724 163.838 59.6094 163.509C59.4948 163.179 59.4375 162.782 59.4375 162.316C59.4375 161.686 59.5843 161.077 59.8779 160.49C60.1787 159.896 60.5833 159.362 61.0918 158.89C61.6074 158.41 62.2054 158.005 62.8857 157.676C63.5661 157.346 64.2894 157.128 65.0557 157.021C65.1917 156.999 65.3099 156.988 65.4102 156.988C65.582 156.988 65.7109 157.028 65.7969 157.106C65.8828 157.178 65.9365 157.296 65.958 157.461C66.2158 159.416 66.3877 161.231 66.4736 162.907C66.5596 164.576 66.6025 166.055 66.6025 167.344C66.6025 167.967 66.5954 168.54 66.5811 169.062C66.5739 169.578 66.5596 170.033 66.5381 170.427C66.5238 170.821 66.5094 171.15 66.4951 171.415C66.488 171.673 66.4844 171.859 66.4844 171.974C66.4844 172.038 66.5023 172.095 66.5381 172.146C66.5811 172.196 66.6491 172.221 66.7422 172.221C66.9857 172.221 67.2507 172.117 67.5371 171.909C67.8236 171.694 68.1172 171.401 68.418 171.028C68.7259 170.649 69.0339 170.194 69.3418 169.664C69.6497 169.134 69.9434 168.55 70.2227 167.913C70.5091 167.276 70.7777 166.595 71.0283 165.872C71.279 165.142 71.4974 164.39 71.6836 163.616C71.7767 163.208 71.8626 162.757 71.9414 162.263C72.0059 161.847 72.0632 161.364 72.1133 160.812C72.1706 160.261 72.1992 159.674 72.1992 159.051C72.1992 158.664 72.1849 158.345 72.1562 158.095C72.1276 157.837 72.1169 157.647 72.124 157.525C72.1455 157.167 72.2493 156.988 72.4355 156.988C72.4714 156.988 72.5107 156.999 72.5537 157.021C72.6038 157.035 72.6576 157.056 72.7148 157.085C72.8223 157.128 72.9118 157.16 72.9834 157.182C73.0622 157.196 73.1302 157.207 73.1875 157.214C73.252 157.221 73.3092 157.232 73.3594 157.246C73.4167 157.253 73.474 157.271 73.5312 157.3C73.5814 157.321 73.6208 157.354 73.6494 157.396C73.6781 157.432 73.7031 157.475 73.7246 157.525C73.7461 157.576 73.7676 157.626 73.7891 157.676C73.8177 157.726 73.8571 157.776 73.9072 157.826C73.9574 157.876 74.0111 157.909 74.0684 157.923C74.1328 157.937 74.1937 157.951 74.251 157.966C74.3083 157.973 74.3584 157.987 74.4014 158.009C74.4515 158.03 74.4837 158.066 74.498 158.116ZM81.7168 157.021C82.4258 157.021 83.0345 157.11 83.543 157.289C84.0586 157.461 84.4883 157.665 84.832 157.901C85.1758 158.131 85.4408 158.363 85.627 158.6C85.8132 158.836 85.9313 159.019 85.9814 159.147C86.0101 159.212 86.0244 159.269 86.0244 159.319C86.0316 159.362 86.0352 159.402 86.0352 159.438C86.0352 159.523 86.0137 159.584 85.9707 159.62C85.9349 159.656 85.8883 159.72 85.8311 159.813C85.7881 159.885 85.738 159.935 85.6807 159.964C85.6305 159.993 85.5732 160.018 85.5088 160.039C85.4515 160.061 85.3942 160.089 85.3369 160.125C85.2868 160.154 85.2438 160.204 85.208 160.275C85.0934 160.49 84.9323 160.598 84.7246 160.598C84.6029 160.598 84.4847 160.562 84.3701 160.49C84.2555 160.411 84.1266 160.315 83.9834 160.2C83.8402 160.086 83.6719 159.96 83.4785 159.824C83.2923 159.688 83.0596 159.563 82.7803 159.448C82.5081 159.334 82.1823 159.241 81.8027 159.169C81.4232 159.09 80.972 159.051 80.4492 159.051C79.8763 159.051 79.3714 159.14 78.9346 159.319C78.5049 159.491 78.1038 159.749 77.7314 160.093C77.4092 160.394 77.1657 160.712 77.001 161.049C76.8434 161.385 76.7646 161.711 76.7646 162.026C76.7646 162.392 76.8828 162.725 77.1191 163.025C77.291 163.24 77.5452 163.451 77.8818 163.659C78.2256 163.867 78.5908 164.064 78.9775 164.25C79.3714 164.436 79.7546 164.608 80.127 164.766C80.5065 164.916 80.8145 165.045 81.0508 165.152C81.2585 165.245 81.3945 165.339 81.459 165.432C81.5306 165.525 81.5664 165.621 81.5664 165.722C81.5664 165.829 81.5449 165.944 81.502 166.065C81.4661 166.18 81.4482 166.298 81.4482 166.42C81.4482 166.477 81.4554 166.531 81.4697 166.581C81.484 166.631 81.4912 166.681 81.4912 166.731C81.4912 166.846 81.4554 166.946 81.3838 167.032C81.3193 167.111 81.2298 167.183 81.1152 167.247C81.0078 167.312 80.8825 167.369 80.7393 167.419C80.596 167.469 80.4528 167.516 80.3096 167.559C80.1019 167.623 79.8369 167.716 79.5146 167.838C79.1924 167.96 78.8809 168.124 78.5801 168.332C78.2793 168.533 78.0215 168.783 77.8066 169.084C77.5918 169.385 77.4844 169.75 77.4844 170.18C77.4844 170.466 77.5452 170.735 77.667 170.985C77.7887 171.236 77.9606 171.458 78.1826 171.651C78.4118 171.838 78.6839 171.984 78.999 172.092C79.3141 172.199 79.6615 172.253 80.041 172.253C80.9076 172.253 81.6917 172.063 82.3936 171.684C83.0954 171.304 83.6719 170.785 84.123 170.126C84.2233 169.983 84.3415 169.779 84.4775 169.514C84.6208 169.242 84.7712 168.912 84.9287 168.525C84.9645 168.439 85.0111 168.375 85.0684 168.332C85.1257 168.282 85.1829 168.257 85.2402 168.257C85.2832 168.257 85.319 168.275 85.3477 168.311C85.3835 168.339 85.4014 168.382 85.4014 168.439C85.4014 168.497 85.3691 168.618 85.3047 168.805C85.2402 168.984 85.1507 169.199 85.0361 169.449C84.9215 169.693 84.7819 169.958 84.6172 170.244C84.4596 170.531 84.2878 170.806 84.1016 171.071C83.8438 171.437 83.543 171.78 83.1992 172.103C82.8626 172.418 82.4938 172.693 82.0928 172.93C81.6989 173.166 81.2764 173.349 80.8252 173.478C80.374 173.614 79.9014 173.682 79.4072 173.682C78.9632 173.682 78.5156 173.617 78.0645 173.488C77.6133 173.367 77.2015 173.18 76.8291 172.93C76.4639 172.679 76.1631 172.36 75.9268 171.974C75.6976 171.587 75.583 171.132 75.583 170.609C75.583 170.087 75.6833 169.639 75.8838 169.267C76.0843 168.887 76.3314 168.568 76.625 168.311C76.9258 168.053 77.248 167.841 77.5918 167.677C77.9427 167.512 78.265 167.38 78.5586 167.279C78.8594 167.172 79.11 167.086 79.3105 167.021C79.5111 166.957 79.6113 166.893 79.6113 166.828C79.6113 166.778 79.5576 166.728 79.4502 166.678C79.3499 166.62 79.2139 166.56 79.042 166.495C78.8773 166.424 78.6875 166.345 78.4727 166.259C78.2578 166.173 78.0394 166.069 77.8174 165.947C77.4593 165.754 77.137 165.55 76.8506 165.335C76.5641 165.12 76.3171 164.887 76.1094 164.637C75.9089 164.379 75.7549 164.1 75.6475 163.799C75.54 163.491 75.4863 163.151 75.4863 162.778C75.4863 162.284 75.5615 161.797 75.7119 161.317C75.8695 160.838 76.0879 160.386 76.3672 159.964C76.6465 159.534 76.9759 159.14 77.3555 158.782C77.7422 158.424 78.1647 158.116 78.623 157.858C79.0885 157.593 79.5827 157.389 80.1055 157.246C80.6283 157.096 81.1654 157.021 81.7168 157.021ZM92.0293 159.126C91.8288 159.126 91.6175 159.147 91.3955 159.19C91.1807 159.226 90.9837 159.305 90.8047 159.427C90.6257 159.549 90.4788 159.72 90.3643 159.942C90.2497 160.164 90.1924 160.462 90.1924 160.834C90.1924 161.214 90.2568 161.65 90.3857 162.145C90.5146 162.632 90.6543 163.176 90.8047 163.777C90.9551 164.372 91.0947 165.02 91.2236 165.722C91.3525 166.416 91.417 167.154 91.417 167.935C91.417 168.687 91.3346 169.36 91.1699 169.954C91.0124 170.541 90.8011 171.046 90.5361 171.469C90.8512 171.555 91.1771 171.641 91.5137 171.727C91.8503 171.812 92.2155 171.888 92.6094 171.952C92.8385 171.995 93.0713 172.027 93.3076 172.049C93.5511 172.063 93.7946 172.07 94.0381 172.07C94.4535 172.07 94.8545 172.035 95.2412 171.963C95.6279 171.884 95.9681 171.759 96.2617 171.587C96.5625 171.415 96.8024 171.189 96.9814 170.91C97.1605 170.624 97.25 170.269 97.25 169.847C97.25 169.782 97.2464 169.718 97.2393 169.653C97.2321 169.582 97.2285 169.507 97.2285 169.428C97.2285 169.256 97.2858 169.17 97.4004 169.17C97.4362 169.17 97.4792 169.191 97.5293 169.234C97.5794 169.277 97.626 169.349 97.6689 169.449C97.7191 169.549 97.7585 169.682 97.7871 169.847C97.8229 170.004 97.8408 170.198 97.8408 170.427C97.8408 170.606 97.8193 170.81 97.7764 171.039C97.7334 171.268 97.6582 171.508 97.5508 171.759C97.4505 172.002 97.3109 172.242 97.1318 172.479C96.96 172.722 96.7415 172.937 96.4766 173.123C96.2116 173.316 95.8929 173.47 95.5205 173.585C95.1553 173.7 94.7292 173.757 94.2422 173.757C93.834 173.757 93.415 173.721 92.9854 173.649C92.5557 173.585 92.126 173.499 91.6963 173.392C91.2738 173.284 90.862 173.162 90.4609 173.026C90.0671 172.89 89.7018 172.758 89.3652 172.629C89.043 172.837 88.6885 173.005 88.3018 173.134C87.9222 173.27 87.5426 173.338 87.1631 173.338C86.6761 173.338 86.3037 173.234 86.0459 173.026C85.7952 172.826 85.6699 172.564 85.6699 172.242C85.6699 171.898 85.8382 171.608 86.1748 171.372C86.5114 171.136 87.0521 171.018 87.7969 171.018C87.9759 171.018 88.1478 171.025 88.3125 171.039C88.4844 171.053 88.6527 171.071 88.8174 171.093C89.0107 170.634 89.1576 170.122 89.2578 169.557C89.3581 168.991 89.4082 168.404 89.4082 167.795C89.4082 167.315 89.3724 166.842 89.3008 166.377C89.2363 165.904 89.1647 165.439 89.0859 164.98C89.0072 164.515 88.932 164.049 88.8604 163.584C88.7959 163.118 88.7637 162.646 88.7637 162.166C88.7637 161.421 88.8568 160.734 89.043 160.104C89.2292 159.473 89.4977 158.933 89.8486 158.481C90.1995 158.023 90.6221 157.665 91.1162 157.407C91.6104 157.149 92.1689 157.021 92.792 157.021C93.3577 157.021 93.8734 157.11 94.3389 157.289C94.8115 157.461 95.2197 157.665 95.5635 157.901C95.9072 158.138 96.1794 158.374 96.3799 158.61C96.5876 158.847 96.7093 159.026 96.7451 159.147C96.7594 159.219 96.7738 159.28 96.7881 159.33C96.8024 159.373 96.8096 159.412 96.8096 159.448C96.8096 159.527 96.7881 159.588 96.7451 159.631C96.7093 159.674 96.6663 159.735 96.6162 159.813C96.5732 159.885 96.5231 159.939 96.4658 159.975C96.4085 160.003 96.3512 160.028 96.2939 160.05C96.2367 160.071 96.1794 160.096 96.1221 160.125C96.0719 160.154 96.0326 160.204 96.0039 160.275C95.9538 160.383 95.8857 160.465 95.7998 160.522C95.7139 160.573 95.6208 160.598 95.5205 160.598C95.3988 160.598 95.2985 160.573 95.2197 160.522C95.1624 160.487 95.0407 160.394 94.8545 160.243C94.6755 160.093 94.4463 159.935 94.167 159.771C93.8877 159.606 93.5654 159.459 93.2002 159.33C92.835 159.194 92.4447 159.126 92.0293 159.126ZM86.8838 172.79C87.1344 172.79 87.3672 172.733 87.582 172.618C87.7969 172.504 87.9938 172.346 88.1729 172.146C87.8577 172.024 87.5964 171.934 87.3887 171.877C87.1882 171.82 87.0127 171.791 86.8623 171.791C86.7119 171.791 86.5938 171.812 86.5078 171.855C86.4219 171.891 86.3574 171.938 86.3145 171.995C86.2715 172.045 86.2428 172.103 86.2285 172.167C86.2214 172.224 86.2178 172.271 86.2178 172.307C86.2178 172.428 86.2715 172.539 86.3789 172.64C86.4935 172.74 86.6618 172.79 86.8838 172.79ZM111.322 165.292C111.322 166.159 111.236 166.968 111.064 167.72C110.9 168.465 110.671 169.148 110.377 169.771C110.09 170.395 109.747 170.95 109.346 171.437C108.945 171.916 108.511 172.321 108.046 172.65C107.588 172.987 107.101 173.241 106.585 173.413C106.076 173.592 105.564 173.682 105.049 173.682C104.669 173.682 104.265 173.621 103.835 173.499C103.412 173.377 102.99 173.188 102.567 172.93C102.152 172.679 101.755 172.357 101.375 171.963C100.995 171.562 100.659 171.086 100.365 170.534C100.072 169.983 99.8389 169.349 99.667 168.633C99.4951 167.917 99.4092 167.111 99.4092 166.216C99.4092 165.328 99.488 164.443 99.6455 163.562C99.8102 162.682 100.064 161.84 100.408 161.038C100.752 160.236 101.192 159.495 101.729 158.814C102.274 158.127 102.925 157.536 103.685 157.042C103.756 156.999 103.828 156.978 103.899 156.978C104.014 156.978 104.071 157.028 104.071 157.128C104.071 157.192 104.046 157.25 103.996 157.3C103.953 157.343 103.86 157.439 103.717 157.59C103.581 157.733 103.42 157.944 103.233 158.224C103.047 158.496 102.85 158.84 102.643 159.255C102.435 159.663 102.242 160.161 102.062 160.748C101.891 161.328 101.747 161.998 101.633 162.757C101.518 163.516 101.461 164.375 101.461 165.335C101.461 166.517 101.558 167.537 101.751 168.396C101.951 169.249 102.224 169.954 102.567 170.513C102.911 171.071 103.312 171.487 103.771 171.759C104.236 172.024 104.734 172.156 105.264 172.156C105.5 172.156 105.758 172.106 106.037 172.006C106.324 171.906 106.606 171.741 106.886 171.512C107.172 171.283 107.448 170.982 107.713 170.609C107.978 170.23 108.211 169.764 108.411 169.213C108.619 168.654 108.784 168.003 108.905 167.258C109.034 166.513 109.099 165.654 109.099 164.68C109.099 163.87 109.052 163.154 108.959 162.531C108.873 161.901 108.758 161.357 108.615 160.898C108.472 160.433 108.307 160.043 108.121 159.728C107.942 159.412 107.756 159.158 107.562 158.965C107.376 158.771 107.19 158.635 107.004 158.557C106.825 158.471 106.667 158.428 106.531 158.428C106.166 158.428 105.872 158.618 105.65 158.997C105.436 159.369 105.328 159.946 105.328 160.727C105.328 161.278 105.378 161.89 105.479 162.563C105.586 163.237 105.736 163.913 105.93 164.594C106.123 165.267 106.359 165.911 106.639 166.527C106.925 167.136 107.247 167.648 107.605 168.063C107.663 168.135 107.691 168.192 107.691 168.235C107.691 168.35 107.573 168.407 107.337 168.407C107.144 168.407 106.907 168.343 106.628 168.214C106.356 168.078 106.069 167.884 105.769 167.634C105.475 167.383 105.181 167.075 104.888 166.71C104.601 166.338 104.34 165.915 104.104 165.442C103.874 164.97 103.688 164.447 103.545 163.874C103.402 163.301 103.33 162.682 103.33 162.016C103.33 161.278 103.43 160.619 103.631 160.039C103.839 159.452 104.107 158.958 104.437 158.557C104.766 158.148 105.138 157.84 105.554 157.633C105.976 157.418 106.399 157.311 106.821 157.311C107.122 157.311 107.444 157.375 107.788 157.504C108.132 157.626 108.468 157.819 108.798 158.084C109.134 158.349 109.453 158.693 109.754 159.115C110.062 159.531 110.33 160.035 110.56 160.63C110.796 161.217 110.982 161.897 111.118 162.671C111.254 163.444 111.322 164.318 111.322 165.292ZM117.134 160.447C117.205 160.29 117.306 160.164 117.435 160.071C117.563 159.971 117.71 159.921 117.875 159.921C117.932 159.921 118.007 159.939 118.101 159.975C118.194 160.01 118.24 160.068 118.24 160.146C118.24 160.204 118.233 160.257 118.219 160.308C118.212 160.351 118.201 160.411 118.187 160.49C118.058 161.099 117.943 161.718 117.843 162.349C117.75 162.979 117.667 163.598 117.596 164.207C117.524 164.816 117.463 165.403 117.413 165.969C117.37 166.527 117.334 167.047 117.306 167.526C117.284 168.006 117.266 168.432 117.252 168.805C117.245 169.17 117.241 169.464 117.241 169.686C117.241 170.044 117.238 170.409 117.23 170.781C117.23 171.154 117.23 171.505 117.23 171.834C117.23 172.156 117.227 172.443 117.22 172.693C117.22 172.944 117.22 173.123 117.22 173.23C117.22 173.259 117.22 173.299 117.22 173.349C117.22 173.399 117.213 173.445 117.198 173.488C117.184 173.538 117.159 173.581 117.123 173.617C117.094 173.653 117.051 173.671 116.994 173.671C116.901 173.671 116.815 173.653 116.736 173.617C116.658 173.581 116.582 173.538 116.511 173.488C116.439 173.445 116.368 173.406 116.296 173.37C116.231 173.334 116.167 173.316 116.103 173.316C116.024 173.316 115.959 173.341 115.909 173.392C115.859 173.442 115.798 173.467 115.727 173.467C115.641 173.467 115.573 173.445 115.522 173.402C115.472 173.359 115.437 173.306 115.415 173.241C115.394 173.177 115.379 173.109 115.372 173.037C115.372 172.965 115.372 172.901 115.372 172.844C115.372 172.708 115.372 172.493 115.372 172.199C115.379 171.906 115.386 171.576 115.394 171.211C115.408 170.839 115.422 170.452 115.437 170.051C115.451 169.643 115.465 169.259 115.479 168.901C115.501 168.486 115.526 168.042 115.555 167.569C115.59 167.09 115.63 166.613 115.673 166.141C115.716 165.668 115.759 165.21 115.802 164.766C115.852 164.314 115.895 163.906 115.931 163.541C115.974 163.169 116.009 162.854 116.038 162.596C116.074 162.338 116.099 162.159 116.113 162.059C116.163 161.743 116.214 161.475 116.264 161.253C116.321 161.031 116.382 160.881 116.446 160.802C116.496 160.737 116.557 160.68 116.629 160.63C116.686 160.587 116.758 160.548 116.844 160.512C116.93 160.469 117.026 160.447 117.134 160.447ZM118.616 158.739C118.086 158.739 117.546 158.797 116.994 158.911C116.443 159.019 115.941 159.198 115.49 159.448C115.039 159.699 114.667 160.032 114.373 160.447C114.087 160.855 113.943 161.364 113.943 161.973C113.943 162.288 113.983 162.589 114.062 162.875C114.14 163.161 114.233 163.423 114.341 163.659C114.448 163.896 114.556 164.1 114.663 164.271C114.771 164.436 114.856 164.558 114.921 164.637C114.957 164.68 114.989 164.73 115.018 164.787C115.046 164.844 115.061 164.895 115.061 164.938C115.061 164.995 115.035 165.045 114.985 165.088C114.942 165.131 114.86 165.152 114.738 165.152C114.566 165.152 114.337 165.095 114.051 164.98C113.771 164.859 113.496 164.676 113.224 164.433C112.959 164.189 112.729 163.878 112.536 163.498C112.343 163.118 112.246 162.671 112.246 162.155C112.246 161.79 112.318 161.41 112.461 161.017C112.604 160.623 112.812 160.236 113.084 159.856C113.363 159.47 113.703 159.104 114.104 158.761C114.513 158.417 114.975 158.116 115.49 157.858C116.013 157.601 116.586 157.396 117.209 157.246C117.839 157.089 118.52 157.01 119.25 157.01C120.224 157.01 121.076 157.167 121.807 157.482C122.537 157.79 123.146 158.202 123.633 158.718C124.12 159.233 124.485 159.828 124.729 160.501C124.979 161.174 125.104 161.876 125.104 162.606C125.104 163.502 124.951 164.311 124.643 165.034C124.342 165.757 123.905 166.373 123.332 166.882C122.759 167.39 122.061 167.784 121.237 168.063C120.414 168.336 119.483 168.472 118.444 168.472C118.366 168.472 118.28 168.475 118.187 168.482C118.101 168.482 118.018 168.475 117.939 168.461C117.868 168.439 117.807 168.411 117.757 168.375C117.714 168.332 117.692 168.268 117.692 168.182C117.692 168.103 117.714 168.028 117.757 167.956C117.8 167.884 117.861 167.845 117.939 167.838C118.863 167.766 119.64 167.598 120.271 167.333C120.901 167.068 121.406 166.731 121.785 166.323C122.172 165.908 122.448 165.432 122.612 164.895C122.784 164.35 122.87 163.767 122.87 163.144C122.87 162.356 122.759 161.683 122.537 161.124C122.315 160.565 122.011 160.111 121.624 159.76C121.237 159.402 120.786 159.144 120.271 158.986C119.755 158.822 119.203 158.739 118.616 158.739ZM132.205 157.021C132.914 157.021 133.523 157.11 134.031 157.289C134.547 157.461 134.977 157.665 135.32 157.901C135.664 158.131 135.929 158.363 136.115 158.6C136.301 158.836 136.42 159.019 136.47 159.147C136.498 159.212 136.513 159.269 136.513 159.319C136.52 159.362 136.523 159.402 136.523 159.438C136.523 159.523 136.502 159.584 136.459 159.62C136.423 159.656 136.377 159.72 136.319 159.813C136.276 159.885 136.226 159.935 136.169 159.964C136.119 159.993 136.062 160.018 135.997 160.039C135.94 160.061 135.882 160.089 135.825 160.125C135.775 160.154 135.732 160.204 135.696 160.275C135.582 160.49 135.421 160.598 135.213 160.598C135.091 160.598 134.973 160.562 134.858 160.49C134.744 160.411 134.615 160.315 134.472 160.2C134.328 160.086 134.16 159.96 133.967 159.824C133.781 159.688 133.548 159.563 133.269 159.448C132.996 159.334 132.671 159.241 132.291 159.169C131.911 159.09 131.46 159.051 130.938 159.051C130.365 159.051 129.86 159.14 129.423 159.319C128.993 159.491 128.592 159.749 128.22 160.093C127.897 160.394 127.654 160.712 127.489 161.049C127.332 161.385 127.253 161.711 127.253 162.026C127.253 162.392 127.371 162.725 127.607 163.025C127.779 163.24 128.034 163.451 128.37 163.659C128.714 163.867 129.079 164.064 129.466 164.25C129.86 164.436 130.243 164.608 130.615 164.766C130.995 164.916 131.303 165.045 131.539 165.152C131.747 165.245 131.883 165.339 131.947 165.432C132.019 165.525 132.055 165.621 132.055 165.722C132.055 165.829 132.033 165.944 131.99 166.065C131.954 166.18 131.937 166.298 131.937 166.42C131.937 166.477 131.944 166.531 131.958 166.581C131.972 166.631 131.979 166.681 131.979 166.731C131.979 166.846 131.944 166.946 131.872 167.032C131.808 167.111 131.718 167.183 131.604 167.247C131.496 167.312 131.371 167.369 131.228 167.419C131.084 167.469 130.941 167.516 130.798 167.559C130.59 167.623 130.325 167.716 130.003 167.838C129.681 167.96 129.369 168.124 129.068 168.332C128.768 168.533 128.51 168.783 128.295 169.084C128.08 169.385 127.973 169.75 127.973 170.18C127.973 170.466 128.034 170.735 128.155 170.985C128.277 171.236 128.449 171.458 128.671 171.651C128.9 171.838 129.172 171.984 129.487 172.092C129.802 172.199 130.15 172.253 130.529 172.253C131.396 172.253 132.18 172.063 132.882 171.684C133.584 171.304 134.16 170.785 134.611 170.126C134.712 169.983 134.83 169.779 134.966 169.514C135.109 169.242 135.259 168.912 135.417 168.525C135.453 168.439 135.499 168.375 135.557 168.332C135.614 168.282 135.671 168.257 135.729 168.257C135.771 168.257 135.807 168.275 135.836 168.311C135.872 168.339 135.89 168.382 135.89 168.439C135.89 168.497 135.857 168.618 135.793 168.805C135.729 168.984 135.639 169.199 135.524 169.449C135.41 169.693 135.27 169.958 135.105 170.244C134.948 170.531 134.776 170.806 134.59 171.071C134.332 171.437 134.031 171.78 133.688 172.103C133.351 172.418 132.982 172.693 132.581 172.93C132.187 173.166 131.765 173.349 131.313 173.478C130.862 173.614 130.39 173.682 129.896 173.682C129.451 173.682 129.004 173.617 128.553 173.488C128.102 173.367 127.69 173.18 127.317 172.93C126.952 172.679 126.651 172.36 126.415 171.974C126.186 171.587 126.071 171.132 126.071 170.609C126.071 170.087 126.172 169.639 126.372 169.267C126.573 168.887 126.82 168.568 127.113 168.311C127.414 168.053 127.736 167.841 128.08 167.677C128.431 167.512 128.753 167.38 129.047 167.279C129.348 167.172 129.598 167.086 129.799 167.021C129.999 166.957 130.1 166.893 130.1 166.828C130.1 166.778 130.046 166.728 129.938 166.678C129.838 166.62 129.702 166.56 129.53 166.495C129.366 166.424 129.176 166.345 128.961 166.259C128.746 166.173 128.528 166.069 128.306 165.947C127.948 165.754 127.625 165.55 127.339 165.335C127.052 165.12 126.805 164.887 126.598 164.637C126.397 164.379 126.243 164.1 126.136 163.799C126.028 163.491 125.975 163.151 125.975 162.778C125.975 162.284 126.05 161.797 126.2 161.317C126.358 160.838 126.576 160.386 126.855 159.964C127.135 159.534 127.464 159.14 127.844 158.782C128.23 158.424 128.653 158.116 129.111 157.858C129.577 157.593 130.071 157.389 130.594 157.246C131.117 157.096 131.654 157.021 132.205 157.021ZM141.69 160.447C141.762 160.29 141.862 160.164 141.991 160.071C142.12 159.971 142.267 159.921 142.432 159.921C142.489 159.921 142.564 159.939 142.657 159.975C142.75 160.01 142.797 160.068 142.797 160.146C142.797 160.204 142.79 160.257 142.775 160.308C142.768 160.351 142.757 160.411 142.743 160.49C142.629 161.02 142.528 161.557 142.442 162.102C142.356 162.639 142.278 163.176 142.206 163.713C142.142 164.243 142.084 164.762 142.034 165.271C141.984 165.779 141.945 166.259 141.916 166.71C142.167 166.71 142.439 166.731 142.732 166.774C143.033 166.817 143.359 166.928 143.71 167.107C144.405 166.971 144.988 166.774 145.461 166.517C145.941 166.252 146.327 165.937 146.621 165.571C146.915 165.199 147.126 164.78 147.255 164.314C147.384 163.842 147.448 163.33 147.448 162.778C147.448 162.076 147.344 161.471 147.137 160.963C146.936 160.447 146.653 160.021 146.288 159.685C145.93 159.348 145.504 159.101 145.01 158.943C144.516 158.779 143.979 158.696 143.398 158.696C142.797 158.696 142.202 158.754 141.615 158.868C141.028 158.983 140.502 159.169 140.036 159.427C139.578 159.685 139.205 160.021 138.919 160.437C138.64 160.852 138.5 161.364 138.5 161.973C138.5 162.288 138.539 162.589 138.618 162.875C138.697 163.161 138.79 163.423 138.897 163.659C139.005 163.896 139.112 164.1 139.22 164.271C139.327 164.436 139.413 164.558 139.478 164.637C139.513 164.68 139.546 164.723 139.574 164.766C139.603 164.809 139.617 164.866 139.617 164.938C139.617 164.995 139.592 165.045 139.542 165.088C139.499 165.131 139.417 165.152 139.295 165.152C139.123 165.152 138.894 165.095 138.607 164.98C138.328 164.859 138.052 164.676 137.78 164.433C137.515 164.189 137.286 163.878 137.093 163.498C136.899 163.118 136.803 162.671 136.803 162.155C136.803 161.79 136.871 161.41 137.007 161.017C137.143 160.623 137.347 160.236 137.619 159.856C137.891 159.477 138.228 159.115 138.629 158.771C139.037 158.428 139.51 158.127 140.047 157.869C140.584 157.611 141.182 157.407 141.841 157.257C142.507 157.099 143.237 157.021 144.032 157.021C144.97 157.021 145.79 157.164 146.492 157.45C147.201 157.737 147.792 158.12 148.265 158.6C148.737 159.072 149.092 159.624 149.328 160.254C149.564 160.877 149.683 161.529 149.683 162.209C149.683 163.047 149.536 163.781 149.242 164.411C148.956 165.034 148.58 165.571 148.114 166.022C147.649 166.474 147.122 166.85 146.535 167.15C145.948 167.451 145.357 167.691 144.763 167.87C145.106 168.192 145.468 168.615 145.848 169.138C146.234 169.66 146.643 170.319 147.072 171.114C147.33 171.594 147.599 172.085 147.878 172.586C148.157 173.087 148.472 173.556 148.823 173.993C149.174 174.43 149.568 174.813 150.005 175.143C150.442 175.479 150.947 175.723 151.52 175.873C151.641 175.909 151.724 175.945 151.767 175.98C151.817 176.016 151.842 176.052 151.842 176.088C151.842 176.167 151.785 176.213 151.67 176.228C151.562 176.249 151.434 176.26 151.283 176.26C151.061 176.26 150.775 176.245 150.424 176.217C150.08 176.188 149.697 176.113 149.274 175.991C148.859 175.869 148.422 175.68 147.964 175.422C147.506 175.164 147.054 174.81 146.61 174.358C146.288 174.029 146.012 173.678 145.783 173.306C145.554 172.94 145.35 172.572 145.171 172.199C144.999 171.82 144.838 171.444 144.688 171.071C144.537 170.699 144.383 170.341 144.226 169.997C144.068 169.653 143.893 169.335 143.699 169.041C143.513 168.74 143.287 168.479 143.022 168.257C142.8 168.293 142.589 168.318 142.389 168.332C142.188 168.346 142.002 168.357 141.83 168.364C141.816 168.644 141.805 168.898 141.798 169.127C141.798 169.349 141.798 169.535 141.798 169.686C141.798 170.044 141.794 170.409 141.787 170.781C141.787 171.154 141.787 171.505 141.787 171.834C141.787 172.156 141.784 172.443 141.776 172.693C141.776 172.944 141.776 173.123 141.776 173.23C141.776 173.259 141.776 173.299 141.776 173.349C141.776 173.399 141.769 173.445 141.755 173.488C141.741 173.538 141.715 173.581 141.68 173.617C141.651 173.653 141.608 173.671 141.551 173.671C141.458 173.671 141.372 173.653 141.293 173.617C141.214 173.581 141.139 173.538 141.067 173.488C140.996 173.445 140.924 173.406 140.853 173.37C140.788 173.334 140.724 173.316 140.659 173.316C140.58 173.316 140.516 173.341 140.466 173.392C140.416 173.442 140.355 173.467 140.283 173.467C140.197 173.467 140.129 173.445 140.079 173.402C140.029 173.359 139.993 173.306 139.972 173.241C139.95 173.177 139.936 173.109 139.929 173.037C139.929 172.965 139.929 172.901 139.929 172.844C139.929 172.708 139.929 172.493 139.929 172.199C139.936 171.906 139.943 171.576 139.95 171.211C139.965 170.839 139.979 170.452 139.993 170.051C140.007 169.643 140.022 169.259 140.036 168.901L140.068 168.246C139.789 168.189 139.571 168.117 139.413 168.031C139.263 167.945 139.188 167.852 139.188 167.752C139.188 167.63 139.273 167.501 139.445 167.365C139.617 167.222 139.854 167.097 140.154 166.989C140.197 166.445 140.244 165.904 140.294 165.367C140.351 164.823 140.401 164.325 140.444 163.874C140.494 163.423 140.537 163.036 140.573 162.714C140.616 162.392 140.648 162.173 140.67 162.059C140.72 161.743 140.77 161.475 140.82 161.253C140.878 161.031 140.938 160.881 141.003 160.802C141.053 160.737 141.114 160.68 141.186 160.63C141.243 160.587 141.314 160.548 141.4 160.512C141.486 160.469 141.583 160.447 141.69 160.447Z" fill="#FFB800"/>
</g>
<g id="Fish" filter="url(#filter3_d_9:179)">
<path id="Vector" d="M135.975 116.191L136.483 111.322L134.989 104.611C134.989 104.611 136.083 103.42 136.7 103.132C137.317 102.844 138.011 102.682 138.011 102.682C138.011 102.682 139.613 102.413 140.668 102.375C141.724 102.34 142.926 102.521 142.891 102.013C142.856 101.51 138.124 100.714 135.536 100.641C132.953 100.568 124.322 100.964 118.096 103.958C111.87 106.952 110.233 109.627 110.233 109.627L108.158 113.704L106.082 114.534C106.082 114.534 104.189 117.674 103.569 119.477C102.948 121.279 102.296 122.686 101.967 123.047C101.641 123.408 100 124.669 100 124.923C100 125.176 101.676 126.114 101.676 126.364C101.676 126.617 100.33 126.94 100.33 127.228C100.33 127.517 102.696 130.149 106.265 132.82C109.833 135.491 114.236 137.436 117.479 138.231C120.718 139.023 125.051 139.384 125.233 139.242C125.416 139.096 121.847 136.321 121.847 136.321C121.847 136.321 125.268 137.763 127.417 138.016C129.566 138.27 129.904 138.285 132.006 138.205C134.109 138.124 137.503 135.165 137.503 135.165L139.322 129.212L138.504 125.326C138.504 125.326 137.402 123.577 137.356 123.216C137.309 122.855 137.81 123.132 138.256 123.243C138.803 123.378 140.075 124.254 140.878 125.084C141.371 125.595 142.887 127.198 143.516 127.87C143.814 128.193 144.35 128.07 144.482 127.655L145.075 124.273L144.749 113.597L143.516 109.396C143.376 109.035 142.883 108.97 142.654 109.289C141.782 110.507 139.881 113.393 139.322 114.104C138.558 115.076 137.251 116.548 136.51 116.81C136.072 116.963 135.909 116.89 135.909 116.89L135.975 116.191V116.191Z" fill="#FFB800"/>
<path id="Vector_2" d="M131.459 138.124C131.459 138.124 137.061 137.028 138.038 131.686C138.803 127.52 137.22 123.193 137.22 123.193C137.22 123.193 137.278 122.601 137.93 123.408C139.132 124.896 141.371 129.819 138.504 134.823C136.079 139.054 131.622 138.285 131.351 138.285C131.079 138.285 131.459 138.124 131.459 138.124Z" fill="#B5D219"/>
<path id="Vector_3" d="M138.011 102.682C138.011 102.682 134.598 102.44 134.462 105.549C134.353 108.013 135.719 109.742 135.664 112.394C135.61 115.046 135.315 116.963 135.909 116.883C136.32 116.829 137.22 115.557 137.247 112.824C137.274 110.092 135.42 107.267 135.47 105.518C135.529 103.712 138.011 102.682 138.011 102.682V102.682Z" fill="#B5D219"/>
<path id="Vector_4" d="M142.984 109.069C142.414 109.292 143.011 111.018 143.201 111.56C143.392 112.102 143.954 115.049 143.993 119.377C144.02 122.486 143.721 125.518 143.582 126.195C143.442 126.871 143.143 127.897 143.88 128.062C144.617 128.228 145.35 126.71 145.766 124.139C146.091 122.109 146.064 120.268 146.091 118.351C146.15 114.315 145.164 111.721 144.807 110.857C144.458 109.988 143.748 108.77 142.984 109.069V109.069Z" fill="#2C2F30"/>
<path id="Vector_5" d="M119.473 104.823C118.465 105.103 119.884 107.175 120.501 108.762C121.467 111.241 123.469 115.722 123.523 120.457C123.577 125.192 122.103 128.673 121.665 129.753C121.211 130.879 120.509 132.494 120.292 132.955C120.074 133.416 120.082 133.946 120.319 134.012C120.866 134.158 121.785 133.535 122.72 132.605C123.341 131.99 124.504 130.764 125.843 126.952C126.576 124.861 127.27 121.206 126.762 117.167C126.157 112.371 124.008 109.142 123.24 107.986C122.103 106.272 120.648 104.496 119.473 104.823Z" fill="#2C2F30"/>
<path id="Vector_6" d="M128.546 109.734C127.891 109.807 128.981 112.202 129.276 113.954C129.749 116.767 129.749 118.57 129.687 120.887C129.629 123.036 129.093 126.756 127.394 129.923C127.022 130.618 126.793 131.222 127.313 131.275C128.348 131.383 130.3 128.885 131.3 126.191C132.425 123.159 132.639 120.457 132.228 117.236C131.898 114.646 131.289 112.936 130.882 112.044C130.509 111.237 129.675 109.611 128.546 109.734V109.734Z" fill="#2C2F30"/>
<path id="Vector_7" d="M113.138 109.419C112.32 109.642 114.64 112.025 115.734 114.784C116.827 117.544 117.161 119.842 117.301 122.252C117.436 124.657 117.099 127.228 116.862 128.816C116.672 130.103 115.978 132.44 116.118 132.874C116.253 133.308 117.064 133.324 117.665 132.351C118.267 131.379 119.558 129.25 120.35 124.65C120.718 122.513 120.54 117.501 118.193 113.912C116.168 110.818 114.093 109.158 113.138 109.419V109.419Z" fill="#2C2F30"/>
<path id="Vector_8" d="M106.086 114.534C106.086 114.534 107.615 112.371 108.27 111.575C108.926 110.783 110.71 108.977 110.71 108.977C110.71 108.977 110.784 114.135 110.966 115.507C111.149 116.879 111.765 119.907 112.46 121.494C112.82 122.321 113.511 124.338 113.406 125.172C113.224 126.652 111.544 128.873 110.823 128.958C109.294 129.138 107.801 126.26 107.11 124.377C106.121 121.71 105.357 116.84 106.086 114.534V114.534Z" fill="#2C2F30"/>
<path id="Vector_9" d="M111.637 123.677C111.676 124.711 110.827 125.372 109.927 125.372C109.027 125.372 108.344 124.519 108.344 123.624C108.344 122.728 109.108 122.056 110.008 122.056C110.908 122.056 111.599 122.701 111.637 123.677Z" fill="#FFB805"/>
<path id="Vector_10" d="M110.055 123.639C109.818 123.908 109.155 123.904 108.918 123.627C108.681 123.351 108.712 122.79 109.054 122.505C109.395 122.217 109.872 122.163 110.155 122.59C110.353 122.893 110.346 123.305 110.055 123.639Z" fill="#FFEDC7"/>
</g>
</g>
<defs>
<filter id="filter0_d_9:179" x="28" y="89" width="130" height="69.1563" filterUnits="userSpaceOnUse" color-interpolation-filters="sRGB">
<feFlood flood-opacity="0" result="BackgroundImageFix"/>
<feColorMatrix in="SourceAlpha" type="matrix" values="0 0 0 0 0 0 0 0 0 0 0 0 0 0 0 0 0 0 127 0" result="hardAlpha"/>
<feOffset dy="4"/>
<feGaussianBlur stdDeviation="2"/>
<feComposite in2="hardAlpha" operator="out"/>
<feColorMatrix type="matrix" values="0 0 0 0 0 0 0 0 0 0 0 0 0 0 0 0 0 0 0.25 0"/>
<feBlend mode="normal" in2="BackgroundImageFix" result="effect1_dropShadow_9:179"/>
<feBlend mode="normal" in="SourceGraphic" in2="effect1_dropShadow_9:179" result="shape"/>
</filter>
<filter id="filter1_d_9:179" x="37.3691" y="113.996" width="54.2656" height="41.6621" filterUnits="userSpaceOnUse" color-interpolation-filters="sRGB">
<feFlood flood-opacity="0" result="BackgroundImageFix"/>
<feColorMatrix in="SourceAlpha" type="matrix" values="0 0 0 0 0 0 0 0 0 0 0 0 0 0 0 0 0 0 127 0" result="hardAlpha"/>
<feOffset dy="4"/>
<feGaussianBlur stdDeviation="2"/>
<feComposite in2="hardAlpha" operator="out"/>
<feColorMatrix type="matrix" values="0 0 0 0 0.172549 0 0 0 0 0.184314 0 0 0 0 0.188235 0 0 0 0.43 0"/>
<feBlend mode="normal" in2="BackgroundImageFix" result="effect1_dropShadow_9:179"/>
<feBlend mode="normal" in="SourceGraphic" in2="effect1_dropShadow_9:179" result="shape"/>
</filter>
<filter id="filter2_d_9:179" x="30.3223" y="156.935" width="125.52" height="27.3252" filterUnits="userSpaceOnUse" color-interpolation-filters="sRGB">
<feFlood flood-opacity="0" result="BackgroundImageFix"/>
<feColorMatrix in="SourceAlpha" type="matrix" values="0 0 0 0 0 0 0 0 0 0 0 0 0 0 0 0 0 0 127 0" result="hardAlpha"/>
<feOffset dy="4"/>
<feGaussianBlur stdDeviation="2"/>
<feComposite in2="hardAlpha" operator="out"/>
<feColorMatrix type="matrix" values="0 0 0 0 1 0 0 0 0 0.721569 0 0 0 0 0 0 0 0 0.19 0"/>
<feBlend mode="normal" in2="BackgroundImageFix" result="effect1_dropShadow_9:179"/>
<feBlend mode="normal" in="SourceGraphic" in2="effect1_dropShadow_9:179" result="shape"/>
</filter>
<filter id="filter3_d_9:179" x="0" y="0.633667" width="246.094" height="238.639" filterUnits="userSpaceOnUse" color-interpolation-filters="sRGB">
<feFlood flood-opacity="0" result="BackgroundImageFix"/>
<feColorMatrix in="SourceAlpha" type="matrix" values="0 0 0 0 0 0 0 0 0 0 0 0 0 0 0 0 0 0 127 0" result="hardAlpha"/>
<feOffset/>
<feGaussianBlur stdDeviation="50"/>
<feComposite in2="hardAlpha" operator="out"/>
<feColorMatrix type="matrix" values="0 0 0 0 0.191254 0 0 0 0 0.707793 0 0 0 0 0.929167 0 0 0 1 0"/>
<feBlend mode="normal" in2="BackgroundImageFix" result="effect1_dropShadow_9:179"/>
<feBlend mode="normal" in="SourceGraphic" in2="effect1_dropShadow_9:179" result="shape"/>
</filter>
</defs>
</svg>
